<svg width="24" height="24" viewBox="0 0 24 24" fill="none">
    <path d="M4.875 14.25a.375.375 0 01.375.375v2.625h2.625a.376.376 0 01.375.375v.75a.375.375 0 01-.375.375H4.5a.75.75 0 01-.75-.75v-3.375a.375.375 0 01.375-.375h.75zm15 0a.375.375 0 01.375.375V18a.75.75 0 01-.75.75h-3.375a.376.376 0 01-.375-.375v-.75a.376.376 0 01.375-.375h2.625v-2.625a.376.376 0 01.375-.375h.75zm-3.375-6a.75.75 0 01.75.75v6a.75.75 0 01-.75.75h-9a.75.75 0 01-.75-.75V9a.75.75 0 01.75-.75h9zm-.75 1.5h-7.5v4.5h7.5v-4.5zm-7.875-4.5a.375.375 0 01.375.375v.75a.375.375 0 01-.375.375H5.25v2.625a.375.375 0 01-.375.375h-.75a.375.375 0 01-.375-.375V6a.75.75 0 01.75-.75h3.375zm11.625 0a.75.75 0 01.75.75v3.375a.376.376 0 01-.375.375h-.75a.375.375 0 01-.375-.375V6.75h-2.625a.375.375 0 01-.375-.375v-.75a.376.376 0 01.375-.375H19.5z" fill="#fff">
    </path>
</svg>
