<svg width="24" height="24" viewBox="0 0 24 24" fill="none" xmlns="http://www.w3.org/2000/svg">
    <path
        d="M19.675 5H4.825C4.369 5 4 5.356 4 5.794v11.912c0 .439.37.794.825.794h14.85c.456 0 .825-.355.825-.794V5.794c0-.438-.37-.794-.825-.794zM5.5 17V6.5H19V17H5.5zm6-4.5H13V14h-1.5v-1.5zm1.5-3h-1.5V11H13V9.5zm-5.72 1.198a.188.188 0 01-.28-.163v-.936c0-.135.073-.26.19-.327l.842-.474a.375.375 0 01.184-.048H9.25c.207 0 .375.168.375.375v5.25a.375.375 0 01-.375.375h-.757a.375.375 0 01-.375-.375v-4.154l-.838.477zm7.22-.163c0 .144.155.234.28.163l.838-.477v4.154c0 .207.168.375.375.375h.757a.375.375 0 00.375-.375v-5.25a.375.375 0 00-.375-.375h-1.034a.375.375 0 00-.184.048l-.841.474a.375.375 0 00-.191.327v.936z"
        fill="#fff"></path>
</svg>
