<svg width="24" height="24" viewBox="0 0 24 24" fill="none" xmlns="http://www.w3.org/2000/svg">
    <path
        d="M17.057 15.996l2.981 2.982a.375.375 0 010 .53l-.53.53a.375.375 0 01-.53 0l-2.982-2.981a7.5 7.5 0 111.06-1.06zM10.5 10.5V8.625a.375.375 0 01.375-.375h.75a.375.375 0 01.375.375V10.5h1.875a.376.376 0 01.375.375v.75a.376.376 0 01-.375.375H12v1.875a.376.376 0 01-.375.375h-.75a.375.375 0 01-.375-.375V12H8.625a.375.375 0 01-.375-.375v-.75a.375.375 0 01.375-.375H10.5zm.75 6.75a6 6 0 100-12 6 6 0 000 12z"
        fill="#fff"></path>
</svg>